<svg version="1" xmlns="http://www.w3.org/2000/svg" width="2850.667" height="2850.667" viewBox="0 0 2138.000000 2138.000000"><path d="M1045.9 2.4c-.2.2-4.2.6-8.9 1-12.4.8-23.2 2-28 3.1-1.4.2-4.4.7-6.7 1-19.2 2.3-66.7 15.9-85.8 24.4-2.2 1-6.5 2.9-9.5 4.2-5.9 2.5-31.8 15.5-36.2 18.2-1.6.9-4 2.5-5.5 3.4-1.6 1-3 1.8-3.3 1.8-1 .1-21.7 14-31 20.9-19.8 14.6-42.9 35.5-59.5 54-3.8 4.3-7.5 8.3-8 9-.6.6-4.6 5.6-8.8 11.1-4.3 5.5-8.5 10.8-9.3 11.7-2.3 2.9-20.4 30.7-20.4 31.4 0 .3-.8 1.8-1.9 3.2-5.7 8.2-17.9 33.2-25.6 52.2-3.9 9.8-12.4 34.6-14.1 41.5-.4 1.6-.8 3.2-.9 3.5-1.1 3.6-2.5 9-2.9 11-.3 1.4-1.4 7-2.6 12.5-1.2 5.5-2.3 11.2-2.5 12.6-.3 2.1-1.3 9.3-3 20.9-.2 1.4-.7 6.1-1 10.5-.4 4.4-.8 10-1.1 12.5-.6 6.4-.6 39.1 0 48 .7 8.8 1.6 19.4 2 23 .2 1.4.6 5 1 8 1.2 9.7 4.6 27.1 8.1 41.5 3 12.2 10.9 38.3 13.4 44 .5 1.1 2.1 5.1 3.7 9 33 82.9 96 154.9 174.4 199.2 12.9 7.3 37.5 19.3 39.4 19.3.8 0 1.7.4 2 .9.3.5 1.8 1.2 3.2 1.5 1.4.4 4.5 1.5 6.8 2.6 11 5 40.5 14.1 59.1 18.1 3.3.7 6.5 1.4 7 1.5 3.6.8 27 4.4 32 4.9 3.3.4 7 .8 8.3 1 5 .8 28.4 1.8 40.7 1.8 19.8-.1 44.1-1.8 54.9-3.9 1.2-.2 3.9-.6 6.1-.9 2.2-.3 5.1-.7 6.5-1 1.4-.3 4.1-.8 6-1.1 5.4-.9 25-5.4 30-6.9 45.8-13.6 78.2-28.1 112.1-50 9.8-6.4 34-24.1 38.4-28.2 1.1-1 5.2-4.5 9-7.8 3.9-3.3 12.7-11.7 19.6-18.6C1408 628.7 1445 559.8 1461 483c2.4-11.5 2.3-11 4.4-26 1.6-11.2 2.6-21.7 3.2-31.5.5-8.6.5-41-.1-47.5-.2-3-.7-8.9-1-13-.3-4.1-1.3-12.2-2.1-18-1.5-10.7-3-19.2-6-33.5-1.8-8.8-6.1-23.8-10.9-38.1C1407 150.3 1305.1 52.9 1177.8 17c-13.1-3.7-34.6-8.5-42.8-9.6-1.9-.2-4.2-.6-5-.9-.8-.2-4-.7-7-1-3-.3-7.1-.8-9-1-10.2-1.3-17.8-1.7-41.6-2.1-14.4-.2-26.3-.2-26.5 0zM101.5 803.5c-45.2 7-81 36.9-94.4 79-1.6 4.9-3.3 11.5-3.8 14.5-.4 3-.8 221-.8 484.5v479l2.9 10.5c5.9 21.7 16.5 39.4 32 53.9 4.8 4.6 14.9 12.3 19.6 15.1 4.3 2.4 14.4 7.7 15.5 8 .6.1 2.1.7 3.5 1.2 3.8 1.5 14.7 4.6 18.3 5.2 1.8.3 4.3.8 5.7 1.1 3.2.6 12 1.3 25.5 2 6.1.3 13.7.8 17 1 3.3.2 10.1.7 15 1 5 .3 11 .7 13.5.9 2.5.2 8.6.7 13.5 1.1 5 .3 11 .8 13.5 1 8.3.7 19.4 1.5 26.5 2 6.7.5 11.3.9 21.5 2 2.5.3 6.9.7 9.8 1 2.8.3 7.3.7 10 1 2.6.2 7.2.7 10.2.9 8.2.8 16.1 1.6 19.8 2.1 1.9.3 6.2.8 9.5 1.1 3.4.3 7.3.7 8.7.9 1.4.2 5 .6 8 1 8.3.9 13.1 1.5 17 2 1.9.3 5.3.7 7.5 1 4.3.4 19.4 2.4 23.5 3 7 1 10.9 1.5 14.9 2 2.3.3 5.5.7 7 .9 2.8.5 10.1 1.5 14.1 2.1 6.8 1 18.7 2.7 20.1 3 .9.2 4 .6 7 1s5.6.8 5.9 1c.3.2 3 .6 6 1s5.8.9 6.1 1c.3.2 2.8.7 5.5 1 2.7.3 7.5 1.1 10.6 1.6 3.2.6 7 1.2 8.5 1.5 1.6.2 5.1.9 7.8 1.4 2.8.5 6.6 1.2 8.5 1.4 1.9.3 4.8.8 6.4 1.1 1.7.4 11.1 2.2 21 4 10 1.9 19 3.7 20.1 3.9 1.1.2 7.6 1.6 14.5 3s17.7 3.7 24 5.1c6.3 1.4 12.4 2.7 13.5 2.9 4.5.9 21 4.8 36.5 8.6 17.9 4.4 17.6 4.4 23.5 5.8 11.7 2.8 50.7 13.7 66.5 18.5 33.7 10.3 67.6 21.4 72.5 23.7 1.1.5 7.6 2.9 14.5 5.4 32.8 11.8 65.3 25.5 99.7 42.1 23.7 11.5 25.4 11.9 39.8 11.9 13.6 0 19.6-1.6 30.6-8 11.9-7 19.7-16.7 24.7-30.7l2.5-7.2.1-520.5c.2-496.4.1-520.8-1.6-527.5-3.5-13.7-11.6-25.6-22.8-33.2-21.1-14.3-76.2-42.7-115.5-59.3-29.4-12.5-31.3-13.2-66.5-26.3-9.6-3.6-51.3-17.7-53.4-18.1-.6-.1-6.3-1.9-12.6-3.8-12.1-3.8-27.4-8.4-32.5-9.8-1.6-.4-10.4-2.8-19.5-5.3-25.5-7.1-84-21.5-94.1-23.2-1.9-.3-6.1-1.2-9.4-2-5.4-1.2-24-5.1-29-6.1-1.1-.2-4-.8-6.5-1.3-2.5-.6-5.8-1.2-7.5-1.5-1.6-.3-6.6-1.2-11-2.1-7.7-1.6-15.6-3-22-4.1-1.6-.3-3.9-.7-5-.9-1.1-.2-3.1-.6-4.5-.9-1.4-.3-3.8-.7-5.5-1-3.2-.4-14.3-2.3-18.5-3.1-2.5-.4-13.4-2.3-18-3-1.4-.2-4.1-.6-6-.9-3.5-.5-5.8-.8-14-2.2-2.5-.4-5.2-.8-6-.9-4.9-.7-19-2.7-21.5-3.1-6.2-1-8.1-1.3-13.4-1.9-3-.4-6.3-.8-7.4-1.1-1-.2-4.5-.6-7.6-.9-3.1-.3-6.7-.8-8.1-1-2.7-.5-7.1-1.1-14-1.9-6.1-.8-11.6-1.4-17-2.1-2.5-.3-6.5-.8-9-1-2.5-.3-5.8-.7-7.5-.9-1.6-.3-6.1-.8-10-1.1-3.8-.4-7.8-.9-8.7-1.1-.9-.1-4.8-.5-8.5-.9-3.7-.3-8.4-.8-10.3-1-7.2-.8-13.7-1.5-19-1.9-3-.3-7.7-.8-10.5-1.1-2.7-.3-7.7-.7-11-1-13.7-1.1-27.2-2.3-34.5-3-2.5-.2-8.5-.7-13.5-1-4.9-.3-11.2-.8-14-1-4.5-.4-13.5-1-31-2.1-16-1.1-35.7-1-43 .1zM2006.9 802.5c-.2.2-5.8.6-12.4.9-6.6.4-14.5.8-17.5 1.1-3 .2-9.5.6-14.5 1-9.5.6-17.7 1.3-26 2-2.7.2-8.6.7-13 1-4.4.3-9.6.8-11.5 1-1.9.2-6.9.7-11 1-4.1.3-9.1.8-11 1-1.9.3-6.4.7-10 1-3.6.3-10.8 1-16 1.5-5.2.6-11.7 1.3-14.5 1.6-2.7.3-6.6.7-8.5.9-1.9.3-6.2.7-9.5 1-3.3.3-6.9.7-8 .9-1.1.2-5.1.7-8.8 1.1-3.7.3-7.6.8-8.5 1-.9.1-4.4.6-7.7.9-3.3.4-7.6.9-9.5 1.2-8.6 1.1-10.8 1.4-15 1.9-2.5.3-5.8.7-7.5.9-1.6.3-5.2.7-8 1.1-2.7.3-6 .8-7.3 1.1-1.2.2-4.4.7-7 1-2.6.2-7.2.9-10.2 1.4-3 .5-7.3 1.1-9.5 1.4-2.2.3-5.6.8-7.5 1.1-1.9.3-4.8.7-6.5 1-4.3.5-8.1 1.2-34 5.5-12.6 2.1-24.6 4.1-26.5 4.5-4.6.7-17.5 3.1-27 5-4.1.8-8.8 1.7-10.5 2-1.6.3-4.1.7-5.5 1-1.4.3-4.1.8-6 1.1-1.9.3-6.2 1.2-9.5 1.9-3.3.8-7.1 1.6-8.5 1.9-2.2.4-33.9 7.2-38 8.1-13.7 3.1-27.2 6.3-38.5 9.2-7.7 1.9-14.7 3.6-15.5 3.8l-8 2c-3.6.9-7.3 1.8-8.2 2-.9.2-4.1 1.1-7 1.9-2.9.9-15 4.3-26.8 7.6-41.8 11.8-97.7 30.2-121.5 40-1.1.5-8.5 3.4-16.5 6.5-32.1 12.7-77.9 33.8-102.5 47.3-4.4 2.5-10 5.6-12.5 6.9-14.7 8.1-30.5 18.1-34.7 22.2-5.8 5.4-10.1 11.6-13 18.6-5.2 12.2-4.9-20.5-4.7 535.5 0 285.2.4 520.1.8 522 3.2 16.4 14.3 31.2 29.3 39 9.7 5.1 18.1 6.9 30.3 6.5 12.3-.3 15.1-1.2 36.5-11.5 12.6-6.1 52.2-24 53-24 .1 0 2-.8 4.1-1.7 2.2-.9 4.4-1.8 4.9-1.9.6-.1 3.3-1.2 6-2.4 6.1-2.6 7.8-3.3 13.5-5.5 2.5-.9 5.6-2.2 7-2.7 11.2-4.5 50.5-18.1 74.5-25.8 32.7-10.5 99.5-28.9 121.5-33.5.8-.1 3.5-.8 6-1.5s5.4-1.4 6.5-1.6c3-.6 24.5-5.4 29-6.5 2.2-.5 4.9-1.1 6-1.4 1.1-.2 13.3-2.6 27-5.5 13.8-2.8 26.4-5.3 28-5.6 2.6-.4 15.5-2.8 22-4 1.1-.2 3.1-.6 4.5-.9 1.4-.3 3.9-.7 5.5-1 1.7-.2 9.5-1.5 17.5-2.9 8-1.3 16.3-2.7 18.5-3.1 5.5-.8 9.5-1.4 12.5-2 3.3-.6 6.2-1.1 19.5-3 6.1-.9 12.2-1.8 13.6-2 1.5-.3 4.7-.7 7-1 2.4-.3 5.5-.7 6.9-1 6-.9 10.7-1.5 14-1.9 6.7-.8 13.6-1.7 23.5-3.1 5.5-.8 12.3-1.6 15-1.9 2.8-.3 10.7-1.3 17.6-2.1 6.9-.8 15-1.7 17.9-2l9-.9c5.7-.8 20.1-2.3 29-3.1 6.2-.6 14.5-1.4 20.5-2 2.2-.2 7.2-.7 11-1 3.9-.3 8.8-.7 11-1 2.2-.2 7.8-.7 12.5-1 4.7-.3 10.5-.8 13-1 2.5-.3 8.1-.7 12.5-1 4.4-.3 10.3-.8 13-1 2.8-.2 9.5-.6 15-1 5.5-.3 13.2-.8 17-1 3.9-.3 11.5-.7 17-1 21.1-1.1 27.8-2.1 41.2-6.4 22.4-7.2 43.1-22.1 57.8-41.6 6.4-8.4 14.9-26.2 18.2-38l2.8-10 .2-479.5c.2-465 .1-479.8-1.7-488-5.8-26.4-19.2-48.2-40.7-66.2-12.9-10.8-36.7-21.2-55.8-24.3-4.3-.8-30.1-1.6-30.6-1z"/></svg>